<svg xmlns="http://www.w3.org/2000/svg" xmlns:xlink="http://www.w3.org/1999/xlink" width="500" zoomAndPan="magnify" viewBox="0 0 375 374.999991" height="500" preserveAspectRatio="xMidYMid meet" version="1.0"><defs><clipPath id="11cadf1bdc"><path d="M 184 49.042969 L 191 49.042969 L 191 89 L 184 89 Z M 184 49.042969 " clip-rule="nonzero"/></clipPath><clipPath id="1980f5bb3f"><path d="M 48.152344 306 L 326.835938 306 L 326.835938 313 L 48.152344 313 Z M 48.152344 306 " clip-rule="nonzero"/></clipPath></defs><path fill="#000000" d="M 175.882812 64.980469 L 198.792969 64.980469 C 199.175781 64.980469 199.546875 64.90625 199.902344 64.761719 C 200.257812 64.613281 200.574219 64.402344 200.847656 64.132812 C 201.117188 63.859375 201.328125 63.546875 201.476562 63.191406 C 201.625 62.835938 201.699219 62.464844 201.699219 62.078125 C 201.699219 61.695312 201.625 61.324219 201.476562 60.96875 C 201.328125 60.613281 201.117188 60.300781 200.847656 60.027344 C 200.574219 59.753906 200.257812 59.546875 199.902344 59.398438 C 199.546875 59.25 199.175781 59.175781 198.792969 59.175781 L 175.882812 59.175781 C 175.5 59.175781 175.128906 59.25 174.773438 59.398438 C 174.417969 59.546875 174.101562 59.753906 173.828125 60.027344 C 173.558594 60.300781 173.347656 60.613281 173.199219 60.96875 C 173.050781 61.324219 172.976562 61.695312 172.976562 62.078125 C 172.976562 62.464844 173.050781 62.835938 173.199219 63.191406 C 173.347656 63.546875 173.558594 63.859375 173.828125 64.132812 C 174.101562 64.402344 174.417969 64.613281 174.773438 64.761719 C 175.128906 64.90625 175.5 64.980469 175.882812 64.980469 Z M 175.882812 64.980469 " fill-opacity="1" fill-rule="nonzero"/><g clip-path="url(#11cadf1bdc)"><path fill="#000000" d="M 187.335938 88.839844 C 187.722656 88.839844 188.09375 88.765625 188.449219 88.617188 C 188.804688 88.46875 189.121094 88.261719 189.394531 87.988281 C 189.664062 87.714844 189.875 87.402344 190.023438 87.046875 C 190.171875 86.691406 190.242188 86.320312 190.242188 85.9375 L 190.242188 52.238281 C 190.242188 51.851562 190.171875 51.480469 190.023438 51.125 C 189.875 50.769531 189.664062 50.457031 189.394531 50.183594 C 189.121094 49.914062 188.804688 49.703125 188.449219 49.554688 C 188.09375 49.410156 187.722656 49.335938 187.335938 49.335938 C 186.953125 49.335938 186.582031 49.410156 186.226562 49.554688 C 185.871094 49.703125 185.554688 49.914062 185.28125 50.183594 C 185.011719 50.457031 184.800781 50.769531 184.652344 51.125 C 184.503906 51.480469 184.429688 51.851562 184.429688 52.238281 L 184.429688 85.9375 C 184.429688 86.320312 184.503906 86.691406 184.652344 87.046875 C 184.800781 87.402344 185.011719 87.714844 185.28125 87.988281 C 185.554688 88.261719 185.871094 88.46875 186.226562 88.617188 C 186.582031 88.765625 186.953125 88.839844 187.335938 88.839844 Z M 187.335938 88.839844 " fill-opacity="1" fill-rule="nonzero"/></g><path fill="#000000" d="M 117.339844 312.75 L 257.335938 312.75 C 257.722656 312.75 258.09375 312.675781 258.449219 312.527344 C 258.804688 312.378906 259.121094 312.171875 259.394531 311.898438 C 259.664062 311.625 259.875 311.3125 260.023438 310.957031 C 260.171875 310.601562 260.242188 310.230469 260.242188 309.847656 L 260.242188 212.328125 C 260.246094 211.835938 260.125 211.375 259.890625 210.941406 C 259.65625 210.507812 259.328125 210.160156 258.914062 209.890625 L 188.914062 164.75 C 188.433594 164.441406 187.910156 164.285156 187.335938 164.285156 C 186.765625 164.285156 186.242188 164.441406 185.761719 164.75 L 115.761719 209.902344 C 115.34375 210.167969 115.019531 210.519531 114.785156 210.953125 C 114.550781 211.386719 114.429688 211.847656 114.433594 212.339844 L 114.433594 309.859375 C 114.433594 310.242188 114.507812 310.609375 114.65625 310.964844 C 114.804688 311.320312 115.015625 311.632812 115.285156 311.902344 C 115.558594 312.171875 115.875 312.382812 116.226562 312.527344 C 116.582031 312.675781 116.953125 312.75 117.339844 312.75 Z M 254.429688 306.945312 L 120.246094 306.945312 L 120.246094 213.921875 L 187.335938 170.644531 L 254.429688 213.921875 Z M 254.429688 306.945312 " fill-opacity="1" fill-rule="nonzero"/><path fill="#000000" d="M 71.640625 312.75 L 117.339844 312.75 C 117.722656 312.75 118.09375 312.675781 118.449219 312.527344 C 118.804688 312.378906 119.121094 312.171875 119.394531 311.898438 C 119.664062 311.625 119.875 311.3125 120.023438 310.957031 C 120.171875 310.601562 120.246094 310.230469 120.246094 309.847656 L 120.246094 228.871094 C 120.242188 228.339844 120.109375 227.847656 119.835938 227.390625 C 119.566406 226.933594 119.195312 226.578125 118.726562 226.324219 C 118.261719 226.070312 117.761719 225.953125 117.230469 225.972656 C 116.699219 225.992188 116.210938 226.144531 115.761719 226.433594 L 70.066406 255.902344 C 69.648438 256.171875 69.324219 256.519531 69.089844 256.953125 C 68.851562 257.386719 68.734375 257.847656 68.734375 258.34375 L 68.734375 309.847656 C 68.734375 310.230469 68.808594 310.601562 68.957031 310.957031 C 69.101562 311.3125 69.3125 311.625 69.585938 311.898438 C 69.859375 312.171875 70.171875 312.378906 70.527344 312.527344 C 70.882812 312.675781 71.253906 312.75 71.640625 312.75 Z M 114.433594 306.945312 L 74.546875 306.945312 L 74.546875 259.925781 L 114.433594 234.207031 Z M 114.433594 306.945312 " fill-opacity="1" fill-rule="nonzero"/><path fill="#000000" d="M 257.335938 312.75 L 303.035156 312.75 C 303.421875 312.75 303.792969 312.675781 304.148438 312.527344 C 304.503906 312.378906 304.816406 312.171875 305.089844 311.898438 C 305.363281 311.625 305.574219 311.3125 305.71875 310.957031 C 305.867188 310.601562 305.941406 310.230469 305.941406 309.847656 L 305.941406 258.34375 C 305.941406 257.847656 305.824219 257.386719 305.585938 256.953125 C 305.351562 256.519531 305.027344 256.171875 304.609375 255.902344 L 258.914062 226.441406 C 258.464844 226.152344 257.976562 226 257.445312 225.976562 C 256.914062 225.957031 256.414062 226.074219 255.949219 226.332031 C 255.480469 226.585938 255.109375 226.941406 254.839844 227.394531 C 254.566406 227.851562 254.433594 228.347656 254.429688 228.878906 L 254.429688 309.851562 C 254.433594 310.238281 254.507812 310.605469 254.65625 310.960938 C 254.800781 311.316406 255.011719 311.628906 255.285156 311.902344 C 255.558594 312.171875 255.871094 312.382812 256.226562 312.527344 C 256.582031 312.675781 256.953125 312.75 257.335938 312.75 Z M 300.128906 306.945312 L 260.242188 306.945312 L 260.242188 234.207031 L 300.128906 259.921875 Z M 300.128906 306.945312 " fill-opacity="1" fill-rule="nonzero"/><path fill="#000000" d="M 154.558594 191.226562 C 155.128906 191.226562 155.65625 191.074219 156.132812 190.761719 L 187.335938 170.644531 L 218.542969 190.761719 C 218.988281 191.050781 219.476562 191.203125 220.011719 191.222656 C 220.542969 191.242188 221.039062 191.125 221.507812 190.871094 C 221.976562 190.617188 222.34375 190.261719 222.617188 189.804688 C 222.886719 189.347656 223.023438 188.855469 223.023438 188.324219 L 223.023438 139.304688 C 223.023438 138.917969 222.949219 138.546875 222.800781 138.191406 C 222.65625 137.835938 222.445312 137.523438 222.171875 137.25 C 221.898438 136.980469 221.585938 136.769531 221.230469 136.621094 C 220.875 136.476562 220.503906 136.402344 220.117188 136.402344 L 154.558594 136.402344 C 154.171875 136.402344 153.800781 136.476562 153.445312 136.621094 C 153.089844 136.769531 152.777344 136.980469 152.503906 137.25 C 152.230469 137.523438 152.019531 137.835938 151.875 138.191406 C 151.726562 138.546875 151.652344 138.917969 151.652344 139.304688 L 151.652344 188.324219 C 151.652344 188.707031 151.726562 189.078125 151.875 189.433594 C 152.019531 189.789062 152.230469 190.105469 152.503906 190.375 C 152.777344 190.648438 153.089844 190.859375 153.445312 191.003906 C 153.800781 191.152344 154.171875 191.226562 154.558594 191.226562 Z M 187.335938 164.285156 C 186.765625 164.285156 186.242188 164.4375 185.761719 164.75 L 157.464844 182.996094 L 157.464844 142.207031 L 217.210938 142.207031 L 217.210938 182.996094 L 188.914062 164.75 C 188.433594 164.4375 187.910156 164.285156 187.335938 164.285156 Z M 187.335938 164.285156 " fill-opacity="1" fill-rule="nonzero"/><path fill="#000000" d="M 150.882812 142.207031 L 223.792969 142.207031 C 224.398438 142.207031 225 142.144531 225.59375 142.027344 C 226.191406 141.90625 226.765625 141.734375 227.328125 141.5 C 227.886719 141.269531 228.417969 140.984375 228.921875 140.648438 C 229.425781 140.3125 229.894531 139.929688 230.324219 139.5 C 230.75 139.070312 231.132812 138.605469 231.472656 138.101562 C 231.808594 137.597656 232.09375 137.066406 232.324219 136.507812 C 232.558594 135.949219 232.730469 135.371094 232.851562 134.777344 C 232.96875 134.183594 233.03125 133.585938 233.03125 132.980469 C 233.027344 132.375 232.964844 131.777344 232.847656 131.183594 C 232.726562 130.589844 232.550781 130.015625 232.316406 129.457031 C 232.082031 128.898438 231.796875 128.367188 231.460938 127.863281 C 231.125 127.363281 230.742188 126.898438 230.3125 126.46875 C 229.882812 126.042969 229.417969 125.660156 228.914062 125.324219 C 228.414062 124.984375 227.882812 124.703125 227.320312 124.46875 C 226.761719 124.234375 226.1875 124.058594 225.59375 123.941406 C 225 123.820312 224.398438 123.757812 223.792969 123.757812 L 150.882812 123.757812 C 150.269531 123.746094 149.660156 123.792969 149.054688 123.90625 C 148.453125 124.015625 147.867188 124.183594 147.296875 124.410156 C 146.726562 124.636719 146.183594 124.917969 145.671875 125.253906 C 145.15625 125.589844 144.679688 125.96875 144.242188 126.398438 C 143.804688 126.828125 143.414062 127.296875 143.070312 127.804688 C 142.726562 128.3125 142.433594 128.847656 142.199219 129.414062 C 141.960938 129.976562 141.78125 130.558594 141.660156 131.160156 C 141.539062 131.761719 141.480469 132.367188 141.480469 132.980469 C 141.480469 133.59375 141.539062 134.199219 141.660156 134.800781 C 141.78125 135.402344 141.960938 135.984375 142.199219 136.550781 C 142.433594 137.113281 142.726562 137.652344 143.070312 138.15625 C 143.414062 138.664062 143.804688 139.132812 144.242188 139.5625 C 144.679688 139.992188 145.15625 140.375 145.671875 140.707031 C 146.183594 141.042969 146.726562 141.324219 147.296875 141.550781 C 147.867188 141.777344 148.453125 141.945312 149.054688 142.058594 C 149.660156 142.167969 150.269531 142.21875 150.882812 142.207031 Z M 223.792969 129.5625 C 224.738281 129.5625 225.542969 129.902344 226.203125 130.574219 C 226.886719 131.230469 227.222656 132.03125 227.21875 132.980469 C 227.21875 133.433594 227.128906 133.871094 226.957031 134.289062 C 226.78125 134.707031 226.535156 135.078125 226.214844 135.398438 C 225.894531 135.71875 225.523438 135.964844 225.105469 136.140625 C 224.683594 136.3125 224.246094 136.402344 223.792969 136.402344 L 150.882812 136.402344 C 150.4375 136.386719 150.007812 136.292969 149.601562 136.113281 C 149.195312 135.933594 148.835938 135.683594 148.523438 135.363281 C 148.214844 135.046875 147.972656 134.679688 147.804688 134.265625 C 147.640625 133.855469 147.554688 133.425781 147.554688 132.980469 C 147.554688 132.535156 147.640625 132.105469 147.804688 131.695312 C 147.972656 131.28125 148.214844 130.917969 148.523438 130.597656 C 148.835938 130.277344 149.195312 130.027344 149.601562 129.847656 C 150.007812 129.667969 150.4375 129.574219 150.882812 129.5625 Z M 223.792969 129.5625 " fill-opacity="1" fill-rule="nonzero"/><path fill="#000000" d="M 164.109375 129.5625 L 210.566406 129.5625 C 210.953125 129.5625 211.324219 129.488281 211.679688 129.339844 C 212.035156 129.191406 212.351562 128.984375 212.621094 128.710938 C 212.894531 128.4375 213.105469 128.125 213.253906 127.769531 C 213.398438 127.414062 213.472656 127.042969 213.472656 126.660156 L 213.472656 105.691406 C 213.476562 104.796875 213.136719 104.0625 212.453125 103.480469 L 189.222656 83.722656 C 188.957031 83.5 188.664062 83.328125 188.339844 83.207031 C 188.015625 83.085938 187.679688 83.027344 187.332031 83.027344 C 186.984375 83.027344 186.648438 83.085938 186.324219 83.207031 C 186 83.328125 185.707031 83.5 185.441406 83.722656 L 162.210938 103.480469 C 161.527344 104.0625 161.1875 104.796875 161.191406 105.691406 L 161.191406 126.660156 C 161.191406 127.042969 161.265625 127.414062 161.414062 127.773438 C 161.5625 128.128906 161.773438 128.441406 162.046875 128.714844 C 162.320312 128.988281 162.636719 129.195312 162.992188 129.34375 C 163.351562 129.488281 163.722656 129.5625 164.109375 129.5625 Z M 207.660156 123.757812 L 167.015625 123.757812 L 167.015625 107.03125 L 187.335938 89.746094 L 207.660156 107.03125 Z M 207.660156 123.757812 " fill-opacity="1" fill-rule="nonzero"/><path fill="#000000" d="M 165.292969 312.75 L 209.382812 312.75 C 209.765625 312.75 210.136719 312.675781 210.492188 312.527344 C 210.851562 312.378906 211.164062 312.171875 211.4375 311.898438 C 211.710938 311.625 211.917969 311.3125 212.066406 310.957031 C 212.214844 310.601562 212.289062 310.230469 212.289062 309.847656 L 212.289062 270.761719 C 212.289062 269.945312 212.246094 269.132812 212.167969 268.320312 C 212.085938 267.507812 211.964844 266.703125 211.804688 265.902344 C 211.644531 265.101562 211.445312 264.3125 211.210938 263.53125 C 210.972656 262.75 210.695312 261.984375 210.382812 261.230469 C 210.070312 260.476562 209.722656 259.742188 209.335938 259.023438 C 208.949219 258.304688 208.53125 257.605469 208.078125 256.925781 C 207.625 256.25 207.136719 255.59375 206.617188 254.964844 C 206.101562 254.332031 205.550781 253.730469 204.972656 253.152344 C 204.394531 252.578125 203.792969 252.03125 203.160156 251.511719 C 202.527344 250.996094 201.875 250.511719 201.195312 250.058594 C 200.515625 249.605469 199.816406 249.1875 199.09375 248.800781 C 198.375 248.417969 197.636719 248.070312 196.882812 247.757812 C 196.128906 247.445312 195.359375 247.171875 194.578125 246.933594 C 193.796875 246.695312 193.003906 246.5 192.203125 246.339844 C 191.402344 246.179688 190.59375 246.0625 189.78125 245.980469 C 188.96875 245.902344 188.15625 245.863281 187.335938 245.863281 C 186.519531 245.863281 185.707031 245.902344 184.894531 245.980469 C 184.082031 246.0625 183.273438 246.179688 182.472656 246.339844 C 181.671875 246.5 180.878906 246.695312 180.097656 246.933594 C 179.316406 247.171875 178.546875 247.445312 177.792969 247.757812 C 177.039062 248.070312 176.300781 248.417969 175.582031 248.800781 C 174.859375 249.1875 174.160156 249.605469 173.480469 250.058594 C 172.800781 250.511719 172.148438 250.996094 171.515625 251.511719 C 170.882812 252.03125 170.277344 252.578125 169.703125 253.152344 C 169.125 253.730469 168.574219 254.332031 168.058594 254.964844 C 167.539062 255.59375 167.050781 256.25 166.597656 256.925781 C 166.144531 257.605469 165.726562 258.304688 165.339844 259.023438 C 164.953125 259.742188 164.605469 260.476562 164.292969 261.230469 C 163.980469 261.984375 163.703125 262.75 163.464844 263.53125 C 163.230469 264.3125 163.03125 265.101562 162.871094 265.902344 C 162.710938 266.703125 162.589844 267.507812 162.507812 268.320312 C 162.429688 269.132812 162.386719 269.945312 162.386719 270.761719 L 162.386719 309.847656 C 162.386719 310.230469 162.460938 310.601562 162.609375 310.957031 C 162.757812 311.3125 162.964844 311.625 163.238281 311.898438 C 163.511719 312.171875 163.824219 312.378906 164.183594 312.527344 C 164.539062 312.675781 164.910156 312.75 165.292969 312.75 Z M 206.476562 306.945312 L 168.199219 306.945312 L 168.199219 270.761719 C 168.199219 270.136719 168.230469 269.511719 168.292969 268.890625 C 168.355469 268.265625 168.449219 267.648438 168.570312 267.035156 C 168.695312 266.421875 168.847656 265.816406 169.027344 265.21875 C 169.210938 264.617188 169.421875 264.03125 169.664062 263.453125 C 169.902344 262.875 170.171875 262.3125 170.464844 261.757812 C 170.761719 261.207031 171.082031 260.671875 171.433594 260.152344 C 171.78125 259.632812 172.152344 259.128906 172.550781 258.648438 C 172.949219 258.164062 173.367188 257.699219 173.8125 257.257812 C 174.253906 256.816406 174.71875 256.398438 175.203125 256 C 175.6875 255.605469 176.191406 255.230469 176.710938 254.886719 C 177.230469 254.539062 177.769531 254.214844 178.320312 253.921875 C 178.875 253.628906 179.441406 253.359375 180.019531 253.121094 C 180.597656 252.882812 181.1875 252.671875 181.785156 252.488281 C 182.386719 252.308594 182.992188 252.15625 183.605469 252.035156 C 184.222656 251.914062 184.839844 251.820312 185.464844 251.761719 C 186.085938 251.699219 186.710938 251.667969 187.335938 251.667969 C 187.964844 251.667969 188.589844 251.699219 189.210938 251.761719 C 189.835938 251.820312 190.453125 251.914062 191.070312 252.035156 C 191.683594 252.15625 192.289062 252.308594 192.890625 252.488281 C 193.488281 252.671875 194.078125 252.882812 194.65625 253.121094 C 195.234375 253.359375 195.800781 253.628906 196.355469 253.921875 C 196.90625 254.214844 197.445312 254.539062 197.964844 254.886719 C 198.484375 255.230469 198.988281 255.605469 199.472656 256 C 199.957031 256.398438 200.421875 256.816406 200.863281 257.257812 C 201.308594 257.699219 201.726562 258.164062 202.125 258.648438 C 202.523438 259.128906 202.894531 259.632812 203.242188 260.152344 C 203.59375 260.671875 203.914062 261.207031 204.210938 261.757812 C 204.503906 262.3125 204.773438 262.875 205.011719 263.453125 C 205.253906 264.03125 205.464844 264.617188 205.648438 265.21875 C 205.828125 265.816406 205.980469 266.421875 206.105469 267.035156 C 206.226562 267.648438 206.320312 268.265625 206.382812 268.890625 C 206.445312 269.511719 206.476562 270.136719 206.476562 270.761719 Z M 206.476562 306.945312 " fill-opacity="1" fill-rule="nonzero"/><path fill="#000000" d="M 271.488281 294.253906 L 288.882812 294.253906 C 289.269531 294.253906 289.636719 294.179688 289.996094 294.03125 C 290.351562 293.882812 290.664062 293.675781 290.9375 293.402344 C 291.210938 293.128906 291.417969 292.816406 291.566406 292.460938 C 291.714844 292.105469 291.789062 291.734375 291.789062 291.351562 L 291.789062 275.925781 C 291.777344 275.175781 291.691406 274.429688 291.535156 273.691406 C 291.378906 272.957031 291.148438 272.242188 290.851562 271.550781 C 290.554688 270.855469 290.195312 270.199219 289.769531 269.578125 C 289.34375 268.953125 288.863281 268.378906 288.324219 267.851562 C 287.789062 267.324219 287.203125 266.851562 286.574219 266.4375 C 285.945312 266.023438 285.28125 265.671875 284.582031 265.386719 C 283.886719 265.101562 283.167969 264.886719 282.425781 264.738281 C 281.6875 264.59375 280.941406 264.523438 280.183594 264.523438 C 279.429688 264.523438 278.683594 264.59375 277.945312 264.738281 C 277.203125 264.886719 276.484375 265.101562 275.785156 265.386719 C 275.089844 265.671875 274.425781 266.023438 273.796875 266.4375 C 273.164062 266.851562 272.582031 267.324219 272.042969 267.851562 C 271.507812 268.378906 271.027344 268.953125 270.601562 269.578125 C 270.175781 270.199219 269.8125 270.855469 269.515625 271.550781 C 269.21875 272.242188 268.992188 272.957031 268.835938 273.691406 C 268.679688 274.429688 268.59375 275.175781 268.582031 275.925781 L 268.582031 291.351562 C 268.582031 291.734375 268.65625 292.105469 268.804688 292.460938 C 268.949219 292.816406 269.160156 293.128906 269.433594 293.402344 C 269.707031 293.675781 270.019531 293.882812 270.375 294.03125 C 270.730469 294.179688 271.101562 294.253906 271.488281 294.253906 Z M 285.976562 288.449219 L 274.394531 288.449219 L 274.394531 275.925781 C 274.402344 275.554688 274.449219 275.183594 274.527344 274.816406 C 274.609375 274.453125 274.722656 274.097656 274.871094 273.753906 C 275.019531 273.410156 275.203125 273.085938 275.414062 272.777344 C 275.628906 272.46875 275.867188 272.183594 276.136719 271.921875 C 276.402344 271.660156 276.695312 271.425781 277.007812 271.21875 C 277.320312 271.015625 277.652344 270.839844 278 270.699219 C 278.347656 270.558594 278.703125 270.453125 279.070312 270.378906 C 279.4375 270.308594 279.808594 270.273438 280.183594 270.273438 C 280.558594 270.273438 280.929688 270.308594 281.300781 270.378906 C 281.667969 270.453125 282.023438 270.558594 282.371094 270.699219 C 282.71875 270.839844 283.050781 271.015625 283.363281 271.21875 C 283.675781 271.425781 283.96875 271.660156 284.234375 271.921875 C 284.503906 272.183594 284.742188 272.46875 284.957031 272.777344 C 285.167969 273.085938 285.347656 273.410156 285.5 273.753906 C 285.648438 274.097656 285.761719 274.453125 285.84375 274.816406 C 285.921875 275.183594 285.96875 275.554688 285.976562 275.925781 Z M 285.976562 288.449219 " fill-opacity="1" fill-rule="nonzero"/><path fill="#000000" d="M 85.792969 294.253906 L 103.1875 294.253906 C 103.574219 294.253906 103.945312 294.179688 104.300781 294.03125 C 104.65625 293.882812 104.96875 293.675781 105.242188 293.402344 C 105.515625 293.128906 105.726562 292.816406 105.871094 292.460938 C 106.019531 292.105469 106.09375 291.734375 106.09375 291.351562 L 106.09375 275.925781 C 106.082031 275.175781 105.996094 274.429688 105.839844 273.691406 C 105.683594 272.957031 105.453125 272.242188 105.15625 271.550781 C 104.859375 270.855469 104.5 270.199219 104.074219 269.578125 C 103.648438 268.957031 103.167969 268.378906 102.628906 267.851562 C 102.09375 267.324219 101.507812 266.851562 100.878906 266.4375 C 100.25 266.023438 99.585938 265.671875 98.890625 265.386719 C 98.191406 265.101562 97.472656 264.886719 96.730469 264.742188 C 95.992188 264.59375 95.246094 264.523438 94.492188 264.523438 C 93.734375 264.523438 92.988281 264.59375 92.25 264.742188 C 91.507812 264.886719 90.789062 265.101562 90.09375 265.386719 C 89.394531 265.671875 88.730469 266.023438 88.101562 266.4375 C 87.472656 266.851562 86.886719 267.324219 86.351562 267.851562 C 85.8125 268.378906 85.332031 268.957031 84.90625 269.578125 C 84.480469 270.199219 84.121094 270.855469 83.824219 271.550781 C 83.527344 272.242188 83.296875 272.957031 83.140625 273.691406 C 82.984375 274.429688 82.898438 275.175781 82.886719 275.925781 L 82.886719 291.351562 C 82.886719 291.734375 82.960938 292.105469 83.109375 292.460938 C 83.257812 292.816406 83.464844 293.128906 83.738281 293.402344 C 84.011719 293.675781 84.324219 293.882812 84.679688 294.03125 C 85.039062 294.179688 85.40625 294.253906 85.792969 294.253906 Z M 100.28125 288.449219 L 88.699219 288.449219 L 88.699219 275.925781 C 88.707031 275.554688 88.753906 275.183594 88.832031 274.816406 C 88.914062 274.453125 89.027344 274.097656 89.175781 273.753906 C 89.328125 273.410156 89.507812 273.085938 89.71875 272.777344 C 89.933594 272.46875 90.171875 272.183594 90.441406 271.921875 C 90.710938 271.660156 91 271.425781 91.3125 271.21875 C 91.625 271.015625 91.957031 270.84375 92.304688 270.699219 C 92.652344 270.558594 93.007812 270.453125 93.375 270.378906 C 93.746094 270.308594 94.117188 270.273438 94.492188 270.273438 C 94.867188 270.273438 95.238281 270.308594 95.605469 270.378906 C 95.972656 270.453125 96.328125 270.558594 96.675781 270.699219 C 97.023438 270.84375 97.355469 271.015625 97.667969 271.21875 C 97.980469 271.425781 98.273438 271.660156 98.539062 271.921875 C 98.808594 272.183594 99.046875 272.46875 99.261719 272.777344 C 99.472656 273.085938 99.65625 273.410156 99.804688 273.753906 C 99.953125 274.097656 100.066406 274.453125 100.148438 274.816406 C 100.226562 275.183594 100.273438 275.554688 100.28125 275.925781 Z M 100.28125 288.449219 " fill-opacity="1" fill-rule="nonzero"/><path fill="#000000" d="M 187.335938 227.554688 C 188.34375 227.554688 189.339844 227.457031 190.324219 227.261719 C 191.3125 227.0625 192.269531 226.773438 193.199219 226.390625 C 194.128906 226.003906 195.011719 225.53125 195.847656 224.976562 C 196.683594 224.417969 197.457031 223.78125 198.167969 223.070312 C 198.878906 222.363281 199.515625 221.589844 200.074219 220.753906 C 200.632812 219.917969 201.101562 219.039062 201.488281 218.109375 C 201.875 217.179688 202.164062 216.226562 202.359375 215.238281 C 202.554688 214.253906 202.652344 213.257812 202.652344 212.253906 C 202.652344 211.25 202.554688 210.257812 202.359375 209.269531 C 202.164062 208.285156 201.871094 207.328125 201.488281 206.402344 C 201.101562 205.472656 200.628906 204.59375 200.070312 203.757812 C 199.511719 202.921875 198.878906 202.148438 198.167969 201.4375 C 197.457031 200.730469 196.683594 200.09375 195.847656 199.535156 C 195.007812 198.976562 194.125 198.507812 193.199219 198.121094 C 192.269531 197.738281 191.3125 197.449219 190.324219 197.253906 C 189.335938 197.054688 188.339844 196.957031 187.335938 196.957031 C 186.332031 196.957031 185.335938 197.054688 184.347656 197.25 C 183.359375 197.449219 182.402344 197.738281 181.472656 198.121094 C 180.542969 198.507812 179.660156 198.976562 178.824219 199.535156 C 177.988281 200.09375 177.214844 200.726562 176.503906 201.4375 C 175.792969 202.148438 175.15625 202.921875 174.597656 203.753906 C 174.039062 204.589844 173.566406 205.472656 173.183594 206.398438 C 172.796875 207.328125 172.507812 208.285156 172.3125 209.269531 C 172.113281 210.253906 172.015625 211.25 172.015625 212.253906 C 172.015625 213.257812 172.113281 214.253906 172.3125 215.238281 C 172.507812 216.222656 172.800781 217.179688 173.183594 218.109375 C 173.570312 219.035156 174.042969 219.917969 174.601562 220.753906 C 175.160156 221.589844 175.792969 222.359375 176.503906 223.070312 C 177.214844 223.78125 177.992188 224.414062 178.828125 224.972656 C 179.664062 225.53125 180.546875 226.003906 181.476562 226.386719 C 182.40625 226.773438 183.363281 227.0625 184.347656 227.257812 C 185.335938 227.457031 186.332031 227.554688 187.335938 227.554688 Z M 187.335938 202.761719 C 187.960938 202.761719 188.582031 202.824219 189.191406 202.945312 C 189.804688 203.066406 190.398438 203.246094 190.976562 203.488281 C 191.550781 203.726562 192.101562 204.019531 192.617188 204.363281 C 193.136719 204.710938 193.617188 205.105469 194.058594 205.546875 C 194.5 205.984375 194.894531 206.464844 195.242188 206.984375 C 195.585938 207.503906 195.878906 208.050781 196.117188 208.625 C 196.359375 209.203125 196.539062 209.796875 196.660156 210.40625 C 196.78125 211.019531 196.839844 211.636719 196.839844 212.257812 C 196.839844 212.882812 196.78125 213.5 196.65625 214.109375 C 196.535156 214.722656 196.355469 215.316406 196.117188 215.890625 C 195.878906 216.46875 195.585938 217.015625 195.238281 217.53125 C 194.890625 218.050781 194.496094 218.53125 194.054688 218.972656 C 193.613281 219.410156 193.132812 219.804688 192.613281 220.152344 C 192.09375 220.496094 191.546875 220.789062 190.96875 221.027344 C 190.394531 221.265625 189.800781 221.445312 189.1875 221.566406 C 188.574219 221.6875 187.957031 221.75 187.332031 221.75 C 186.707031 221.75 186.089844 221.6875 185.476562 221.566406 C 184.867188 221.445312 184.269531 221.265625 183.695312 221.027344 C 183.117188 220.789062 182.570312 220.496094 182.050781 220.148438 C 181.53125 219.800781 181.050781 219.40625 180.609375 218.96875 C 180.167969 218.527344 179.777344 218.046875 179.429688 217.527344 C 179.082031 217.007812 178.789062 216.460938 178.550781 215.886719 C 178.3125 215.308594 178.132812 214.71875 178.011719 214.105469 C 177.890625 213.492188 177.828125 212.875 177.828125 212.253906 C 177.828125 211.628906 177.890625 211.011719 178.011719 210.402344 C 178.132812 209.789062 178.3125 209.195312 178.554688 208.621094 C 178.792969 208.042969 179.085938 207.496094 179.433594 206.980469 C 179.777344 206.460938 180.171875 205.980469 180.613281 205.542969 C 181.054688 205.101562 181.535156 204.707031 182.054688 204.359375 C 182.574219 204.015625 183.121094 203.722656 183.699219 203.484375 C 184.277344 203.246094 184.871094 203.066406 185.484375 202.945312 C 186.09375 202.824219 186.714844 202.761719 187.335938 202.761719 Z M 187.335938 202.761719 " fill-opacity="1" fill-rule="nonzero"/><g clip-path="url(#1980f5bb3f)"><path fill="#000000" d="M 50.742188 312.75 L 323.929688 312.75 C 324.316406 312.75 324.6875 312.675781 325.042969 312.527344 C 325.398438 312.378906 325.714844 312.171875 325.988281 311.898438 C 326.257812 311.625 326.46875 311.3125 326.617188 310.957031 C 326.765625 310.601562 326.835938 310.230469 326.835938 309.847656 C 326.835938 309.460938 326.765625 309.089844 326.617188 308.734375 C 326.46875 308.378906 326.257812 308.066406 325.988281 307.792969 C 325.714844 307.523438 325.398438 307.3125 325.042969 307.164062 C 324.6875 307.019531 324.316406 306.945312 323.929688 306.945312 L 50.742188 306.945312 C 50.359375 306.945312 49.988281 307.019531 49.632812 307.164062 C 49.277344 307.3125 48.960938 307.523438 48.6875 307.792969 C 48.417969 308.066406 48.207031 308.378906 48.058594 308.734375 C 47.910156 309.089844 47.839844 309.460938 47.835938 309.847656 C 47.839844 310.230469 47.910156 310.601562 48.058594 310.957031 C 48.207031 311.3125 48.417969 311.625 48.6875 311.898438 C 48.960938 312.171875 49.277344 312.378906 49.632812 312.527344 C 49.988281 312.675781 50.359375 312.75 50.742188 312.75 Z M 50.742188 312.75 " fill-opacity="1" fill-rule="nonzero"/></g><path fill="#000000" d="M 341.527344 102.976562 C 341.527344 101.660156 341.460938 100.347656 341.335938 99.039062 C 341.207031 97.726562 341.011719 96.429688 340.757812 95.136719 C 340.5 93.847656 340.179688 92.570312 339.800781 91.3125 C 339.417969 90.050781 338.976562 88.8125 338.472656 87.597656 C 337.96875 86.382812 337.410156 85.195312 336.789062 84.03125 C 336.171875 82.871094 335.496094 81.746094 334.765625 80.648438 C 334.035156 79.554688 333.253906 78.5 332.421875 77.484375 C 331.585938 76.464844 330.707031 75.492188 329.777344 74.558594 C 328.847656 73.628906 327.875 72.746094 326.859375 71.910156 C 325.84375 71.078125 324.789062 70.292969 323.695312 69.5625 C 322.605469 68.832031 321.480469 68.15625 320.320312 67.535156 C 319.160156 66.914062 317.976562 66.351562 316.761719 65.847656 C 315.546875 65.34375 314.3125 64.902344 313.054688 64.519531 C 311.796875 64.136719 310.523438 63.820312 309.234375 63.5625 C 307.945312 63.304688 306.648438 63.113281 305.339844 62.984375 C 304.03125 62.855469 302.722656 62.789062 301.40625 62.789062 C 300.09375 62.789062 298.78125 62.855469 297.476562 62.984375 C 296.167969 63.113281 294.871094 63.304688 293.582031 63.5625 C 292.292969 63.820312 291.019531 64.136719 289.761719 64.519531 C 288.503906 64.902344 287.269531 65.34375 286.054688 65.847656 C 284.839844 66.351562 283.65625 66.914062 282.496094 67.535156 C 281.335938 68.15625 280.210938 68.832031 279.117188 69.5625 C 278.027344 70.292969 276.972656 71.078125 275.957031 71.910156 C 274.941406 72.746094 273.96875 73.628906 273.039062 74.558594 C 272.109375 75.492188 271.230469 76.464844 270.394531 77.484375 C 269.5625 78.5 268.78125 79.554688 268.050781 80.648438 C 267.320312 81.746094 266.644531 82.871094 266.027344 84.03125 C 265.40625 85.195312 264.84375 86.382812 264.34375 87.597656 C 263.839844 88.8125 263.398438 90.050781 263.015625 91.3125 C 262.632812 92.570312 262.316406 93.847656 262.058594 95.136719 C 261.804688 96.429688 261.609375 97.726562 261.480469 99.039062 C 261.351562 100.347656 261.289062 101.660156 261.289062 102.976562 C 261.289062 104.292969 261.351562 105.605469 261.480469 106.917969 C 261.609375 108.226562 261.804688 109.527344 262.058594 110.816406 C 262.316406 112.109375 262.632812 113.382812 263.015625 114.644531 C 263.398438 115.902344 263.839844 117.140625 264.34375 118.355469 C 264.84375 119.574219 265.40625 120.761719 266.027344 121.921875 C 266.644531 123.082031 267.320312 124.210938 268.050781 125.304688 C 268.78125 126.398438 269.5625 127.453125 270.394531 128.472656 C 271.230469 129.488281 272.109375 130.464844 273.039062 131.394531 C 273.96875 132.324219 274.941406 133.207031 275.957031 134.042969 C 276.972656 134.878906 278.027344 135.660156 279.117188 136.390625 C 280.210938 137.125 281.335938 137.800781 282.496094 138.417969 C 283.65625 139.039062 284.839844 139.601562 286.054688 140.105469 C 287.269531 140.609375 288.503906 141.050781 289.761719 141.433594 C 291.019531 141.816406 292.292969 142.136719 293.582031 142.394531 C 294.871094 142.648438 296.167969 142.84375 297.476562 142.972656 C 298.78125 143.101562 300.09375 143.164062 301.40625 143.164062 C 302.722656 143.164062 304.03125 143.097656 305.339844 142.96875 C 306.644531 142.839844 307.945312 142.644531 309.230469 142.386719 C 310.519531 142.128906 311.792969 141.808594 313.050781 141.425781 C 314.304688 141.042969 315.542969 140.601562 316.753906 140.097656 C 317.96875 139.59375 319.15625 139.03125 320.3125 138.410156 C 321.472656 137.789062 322.597656 137.113281 323.6875 136.382812 C 324.78125 135.648438 325.835938 134.867188 326.847656 134.03125 C 327.863281 133.195312 328.835938 132.3125 329.765625 131.382812 C 330.695312 130.453125 331.574219 129.480469 332.410156 128.460938 C 333.242188 127.445312 334.023438 126.390625 334.753906 125.296875 C 335.484375 124.203125 336.160156 123.074219 336.777344 121.914062 C 337.398438 120.753906 337.960938 119.566406 338.464844 118.351562 C 338.964844 117.136719 339.410156 115.898438 339.792969 114.640625 C 340.171875 113.378906 340.492188 112.105469 340.75 110.816406 C 341.007812 109.523438 341.199219 108.226562 341.332031 106.914062 C 341.460938 105.605469 341.527344 104.292969 341.527344 102.976562 Z M 266.527344 102.976562 C 266.527344 101.832031 266.582031 100.691406 266.695312 99.550781 C 266.804688 98.414062 266.972656 97.28125 267.195312 96.160156 C 267.417969 95.039062 267.695312 93.929688 268.027344 92.835938 C 268.359375 91.738281 268.742188 90.664062 269.179688 89.605469 C 269.617188 88.546875 270.105469 87.515625 270.644531 86.507812 C 271.183594 85.496094 271.769531 84.515625 272.40625 83.566406 C 273.039062 82.613281 273.71875 81.695312 274.445312 80.8125 C 275.167969 79.925781 275.933594 79.078125 276.742188 78.269531 C 277.550781 77.460938 278.394531 76.695312 279.277344 75.96875 C 280.160156 75.242188 281.078125 74.5625 282.027344 73.925781 C 282.976562 73.289062 283.957031 72.703125 284.964844 72.160156 C 285.972656 71.621094 287.003906 71.132812 288.058594 70.695312 C 289.113281 70.257812 290.1875 69.871094 291.28125 69.539062 C 292.375 69.207031 293.480469 68.929688 294.601562 68.707031 C 295.722656 68.484375 296.851562 68.316406 297.988281 68.203125 C 299.125 68.09375 300.265625 68.035156 301.40625 68.035156 C 302.550781 68.035156 303.691406 68.09375 304.828125 68.203125 C 305.964844 68.316406 307.09375 68.484375 308.210938 68.707031 C 309.332031 68.929688 310.441406 69.207031 311.535156 69.539062 C 312.625 69.871094 313.699219 70.257812 314.757812 70.695312 C 315.8125 71.132812 316.84375 71.621094 317.851562 72.160156 C 318.859375 72.703125 319.835938 73.289062 320.789062 73.925781 C 321.738281 74.5625 322.652344 75.242188 323.535156 75.96875 C 324.417969 76.695312 325.265625 77.460938 326.074219 78.269531 C 326.878906 79.078125 327.648438 79.925781 328.371094 80.8125 C 329.097656 81.695312 329.777344 82.613281 330.410156 83.566406 C 331.046875 84.515625 331.632812 85.496094 332.171875 86.507812 C 332.710938 87.515625 333.199219 88.546875 333.632812 89.605469 C 334.070312 90.664062 334.457031 91.738281 334.789062 92.835938 C 335.121094 93.929688 335.398438 95.039062 335.621094 96.160156 C 335.84375 97.28125 336.011719 98.414062 336.121094 99.550781 C 336.234375 100.691406 336.289062 101.832031 336.289062 102.976562 C 336.289062 104.121094 336.234375 105.261719 336.121094 106.402344 C 336.007812 107.542969 335.84375 108.671875 335.621094 109.792969 C 335.398438 110.917969 335.121094 112.023438 334.789062 113.121094 C 334.457031 114.214844 334.070312 115.292969 333.632812 116.347656 C 333.199219 117.40625 332.710938 118.4375 332.171875 119.449219 C 331.632812 120.457031 331.046875 121.4375 330.410156 122.390625 C 329.777344 123.339844 329.097656 124.257812 328.371094 125.144531 C 327.648438 126.027344 326.878906 126.875 326.074219 127.683594 C 325.265625 128.492188 324.417969 129.261719 323.535156 129.988281 C 322.652344 130.714844 321.738281 131.394531 320.789062 132.03125 C 319.835938 132.664062 318.859375 133.253906 317.851562 133.792969 C 316.84375 134.332031 315.8125 134.820312 314.757812 135.257812 C 313.699219 135.695312 312.625 136.082031 311.535156 136.414062 C 310.441406 136.746094 309.332031 137.023438 308.210938 137.246094 C 307.09375 137.46875 305.964844 137.636719 304.828125 137.75 C 303.691406 137.863281 302.550781 137.917969 301.40625 137.917969 C 300.265625 137.917969 299.125 137.859375 297.988281 137.75 C 296.851562 137.636719 295.722656 137.46875 294.605469 137.242188 C 293.484375 137.019531 292.378906 136.742188 291.285156 136.410156 C 290.191406 136.078125 289.117188 135.691406 288.0625 135.253906 C 287.007812 134.816406 285.976562 134.324219 284.96875 133.785156 C 283.960938 133.246094 282.984375 132.660156 282.035156 132.023438 C 281.082031 131.386719 280.167969 130.707031 279.285156 129.980469 C 278.402344 129.253906 277.554688 128.488281 276.75 127.679688 C 275.941406 126.871094 275.175781 126.023438 274.449219 125.136719 C 273.726562 124.253906 273.046875 123.335938 272.410156 122.382812 C 271.777344 121.433594 271.191406 120.453125 270.652344 119.445312 C 270.113281 118.433594 269.625 117.402344 269.1875 116.34375 C 268.75 115.289062 268.363281 114.210938 268.03125 113.117188 C 267.699219 112.023438 267.421875 110.914062 267.199219 109.792969 C 266.976562 108.671875 266.808594 107.539062 266.695312 106.402344 C 266.582031 105.261719 266.527344 104.121094 266.527344 102.976562 Z M 266.527344 102.976562 " fill-opacity="1" fill-rule="nonzero"/><path fill="#000000" d="M 324.011719 161.414062 C 331.527344 149.980469 339.378906 138.179688 341.578125 135.480469 C 342.609375 134.203125 343.574219 132.882812 344.480469 131.515625 C 345.382812 130.144531 346.21875 128.738281 346.988281 127.289062 C 347.757812 125.84375 348.457031 124.363281 349.085938 122.847656 C 349.714844 121.332031 350.273438 119.792969 350.753906 118.226562 C 351.238281 116.660156 351.644531 115.070312 351.976562 113.464844 C 352.308594 111.859375 352.5625 110.242188 352.742188 108.613281 C 352.921875 106.980469 353.023438 105.347656 353.042969 103.707031 C 353.066406 102.066406 353.011719 100.429688 352.878906 98.792969 C 352.746094 97.160156 352.539062 95.535156 352.25 93.917969 C 351.964844 92.304688 351.601562 90.707031 351.164062 89.128906 C 350.722656 87.546875 350.210938 85.992188 349.625 84.460938 C 349.039062 82.929688 348.382812 81.429688 347.652344 79.960938 C 346.921875 78.492188 346.125 77.0625 345.261719 75.667969 C 344.398438 74.277344 343.46875 72.925781 342.476562 71.621094 C 341.484375 70.320312 340.429688 69.066406 339.316406 67.859375 C 338.207031 66.65625 337.039062 65.507812 335.820312 64.417969 C 333.109375 61.96875 330.171875 59.832031 327.007812 58.015625 C 323.839844 56.195312 320.519531 54.734375 317.042969 53.625 C 313.5625 52.519531 310.007812 51.796875 306.375 51.453125 C 302.742188 51.109375 299.113281 51.152344 295.488281 51.589844 C 273.019531 54.082031 252.203125 75.25 250.027344 97.808594 C 249.691406 101.128906 249.679688 104.445312 249.984375 107.765625 C 250.292969 111.085938 250.914062 114.347656 251.851562 117.546875 C 252.792969 120.746094 254.027344 123.828125 255.5625 126.785156 C 257.097656 129.746094 258.902344 132.527344 260.972656 135.136719 C 263.566406 138.417969 271.421875 150.089844 278.859375 161.398438 L 278.867188 161.40625 C 264.136719 163.976562 249.765625 169.691406 249.765625 178.871094 C 249.765625 191.390625 276.375 198.152344 301.40625 198.152344 C 326.441406 198.152344 353.050781 191.390625 353.050781 178.871094 C 353.050781 169.679688 338.722656 163.980469 324.011719 161.414062 Z M 265.085938 131.859375 C 263.21875 129.515625 261.597656 127.011719 260.214844 124.355469 C 258.835938 121.695312 257.722656 118.925781 256.878906 116.050781 C 256.035156 113.175781 255.472656 110.242188 255.199219 107.257812 C 254.921875 104.273438 254.9375 101.289062 255.238281 98.308594 C 257.175781 78.398438 276.242188 59.011719 296.066406 56.78125 C 297.859375 56.59375 299.65625 56.5 301.460938 56.492188 C 304.285156 56.484375 307.089844 56.734375 309.871094 57.242188 C 312.648438 57.75 315.359375 58.511719 318 59.523438 C 320.640625 60.535156 323.164062 61.78125 325.574219 63.257812 C 327.984375 64.738281 330.238281 66.425781 332.335938 68.324219 C 333.433594 69.304688 334.480469 70.339844 335.480469 71.421875 C 336.480469 72.5 337.425781 73.628906 338.316406 74.800781 C 339.207031 75.972656 340.042969 77.183594 340.820312 78.433594 C 341.597656 79.6875 342.3125 80.972656 342.96875 82.292969 C 343.621094 83.613281 344.210938 84.960938 344.738281 86.335938 C 345.265625 87.710938 345.726562 89.109375 346.121094 90.53125 C 346.515625 91.949219 346.839844 93.386719 347.097656 94.835938 C 347.355469 96.285156 347.542969 97.746094 347.660156 99.214844 C 347.78125 100.683594 347.828125 102.15625 347.808594 103.628906 C 347.785156 105.101562 347.695312 106.574219 347.535156 108.039062 C 347.375 109.503906 347.144531 110.957031 346.84375 112.398438 C 346.546875 113.84375 346.179688 115.265625 345.746094 116.675781 C 345.3125 118.082031 344.8125 119.46875 344.246094 120.828125 C 343.679688 122.1875 343.050781 123.519531 342.359375 124.820312 C 341.664062 126.121094 340.914062 127.382812 340.101562 128.613281 C 339.289062 129.839844 338.417969 131.027344 337.496094 132.175781 C 334.980469 135.296875 325.710938 149.226562 317.539062 161.660156 C 317.476562 161.746094 317.433594 161.820312 317.378906 161.902344 C 317.328125 161.976562 317.28125 162.050781 317.234375 162.128906 L 317.199219 162.183594 C 310.363281 172.597656 304.394531 181.804688 303.84375 182.644531 C 303.707031 182.839844 303.546875 183.015625 303.371094 183.171875 C 303.191406 183.328125 302.996094 183.460938 302.785156 183.570312 C 302.574219 183.679688 302.355469 183.761719 302.125 183.820312 C 301.890625 183.875 301.660156 183.902344 301.421875 183.902344 C 301.183594 183.902344 300.949219 183.875 300.71875 183.820312 C 300.488281 183.761719 300.265625 183.679688 300.054688 183.570312 C 299.84375 183.460938 299.652344 183.328125 299.472656 183.171875 C 299.292969 183.015625 299.136719 182.839844 299 182.644531 C 297.847656 180.859375 270.636719 138.863281 265.085938 131.859375 Z M 301.40625 192.902344 C 272.65625 192.902344 255.003906 184.730469 255.003906 178.871094 C 255.003906 174.523438 264.296875 168.871094 282.035156 166.203125 C 288.761719 176.484375 294.496094 185.320312 294.597656 185.503906 C 294.785156 185.785156 294.984375 186.058594 295.203125 186.316406 C 295.421875 186.574219 295.652344 186.816406 295.902344 187.046875 C 296.148438 187.273438 296.410156 187.488281 296.6875 187.683594 C 296.960938 187.878906 297.246094 188.058594 297.542969 188.21875 C 297.839844 188.378906 298.144531 188.519531 298.457031 188.644531 C 298.773438 188.765625 299.09375 188.871094 299.421875 188.953125 C 299.746094 189.035156 300.078125 189.097656 300.414062 189.140625 C 300.746094 189.183594 301.082031 189.203125 301.421875 189.203125 C 301.757812 189.203125 302.09375 189.183594 302.429688 189.140625 C 302.761719 189.097656 303.09375 189.035156 303.421875 188.953125 C 303.75 188.871094 304.070312 188.765625 304.382812 188.644531 C 304.699219 188.519531 305.003906 188.378906 305.300781 188.21875 C 305.597656 188.058594 305.882812 187.878906 306.15625 187.683594 C 306.429688 187.488281 306.691406 187.273438 306.941406 187.046875 C 307.1875 186.816406 307.421875 186.574219 307.640625 186.316406 C 307.855469 186.058594 308.058594 185.785156 308.242188 185.503906 C 308.347656 185.320312 314.101562 176.464844 320.828125 166.214844 C 338.351562 168.847656 347.8125 174.617188 347.8125 178.871094 C 347.8125 184.730469 330.15625 192.902344 301.40625 192.902344 Z M 301.40625 192.902344 " fill-opacity="1" fill-rule="nonzero"/><path fill="#000000" d="M 311.488281 123.9375 L 311.496094 123.933594 L 324.070312 123.933594 C 324.417969 123.9375 324.75 123.867188 325.070312 123.734375 C 325.390625 123.601562 325.675781 123.414062 325.921875 123.167969 C 326.167969 122.921875 326.355469 122.636719 326.488281 122.316406 C 326.621094 121.996094 326.6875 121.660156 326.6875 121.3125 L 326.6875 104.992188 C 326.6875 104.472656 326.546875 103.996094 326.261719 103.558594 C 325.976562 103.121094 325.597656 102.800781 325.121094 102.589844 L 314.109375 97.757812 L 314.109375 92.957031 C 314.101562 92.125 313.78125 91.441406 313.140625 90.910156 L 304.027344 83.433594 L 304.027344 81.398438 L 304.84375 81.398438 C 305.191406 81.398438 305.523438 81.332031 305.84375 81.199219 C 306.164062 81.066406 306.449219 80.875 306.695312 80.628906 C 306.941406 80.382812 307.128906 80.101562 307.261719 79.777344 C 307.394531 79.457031 307.460938 79.121094 307.460938 78.773438 C 307.460938 78.425781 307.394531 78.09375 307.261719 77.769531 C 307.128906 77.449219 306.941406 77.164062 306.695312 76.917969 C 306.449219 76.671875 306.164062 76.484375 305.84375 76.351562 C 305.523438 76.21875 305.191406 76.152344 304.84375 76.152344 L 304.027344 76.152344 L 304.027344 74.09375 C 304.027344 73.746094 303.960938 73.410156 303.828125 73.089844 C 303.695312 72.769531 303.503906 72.484375 303.257812 72.238281 C 303.015625 71.992188 302.730469 71.804688 302.410156 71.671875 C 302.089844 71.539062 301.753906 71.472656 301.40625 71.472656 C 301.058594 71.472656 300.726562 71.539062 300.40625 71.671875 C 300.085938 71.804688 299.800781 71.992188 299.554688 72.238281 C 299.308594 72.484375 299.121094 72.769531 298.988281 73.089844 C 298.855469 73.410156 298.789062 73.746094 298.789062 74.09375 L 298.789062 76.152344 L 297.972656 76.152344 C 297.625 76.152344 297.292969 76.21875 296.972656 76.351562 C 296.648438 76.484375 296.367188 76.671875 296.121094 76.917969 C 295.875 77.164062 295.6875 77.449219 295.554688 77.769531 C 295.421875 78.09375 295.355469 78.425781 295.355469 78.773438 C 295.355469 79.121094 295.421875 79.457031 295.554688 79.777344 C 295.6875 80.101562 295.875 80.382812 296.121094 80.628906 C 296.367188 80.875 296.648438 81.066406 296.972656 81.199219 C 297.292969 81.332031 297.625 81.398438 297.972656 81.398438 L 298.789062 81.398438 L 298.789062 83.433594 L 289.675781 90.910156 C 289.035156 91.441406 288.710938 92.125 288.707031 92.957031 L 288.707031 97.757812 L 277.695312 102.589844 C 277.21875 102.800781 276.839844 103.121094 276.554688 103.558594 C 276.269531 103.996094 276.128906 104.472656 276.128906 104.992188 L 276.128906 121.3125 C 276.128906 121.660156 276.195312 121.996094 276.328125 122.316406 C 276.460938 122.636719 276.648438 122.921875 276.894531 123.167969 C 277.140625 123.414062 277.421875 123.601562 277.746094 123.734375 C 278.066406 123.867188 278.398438 123.9375 278.746094 123.933594 L 291.320312 123.933594 L 291.324219 123.9375 Z M 321.449219 106.710938 L 321.449219 118.6875 L 314.109375 118.6875 L 314.109375 103.488281 Z M 301.40625 88.078125 L 308.871094 94.191406 L 308.871094 99.378906 C 308.871094 99.421875 308.871094 99.460938 308.871094 99.5 L 308.871094 118.6875 L 304.027344 118.6875 L 304.027344 113.222656 C 304.027344 112.875 303.960938 112.539062 303.828125 112.21875 C 303.695312 111.898438 303.503906 111.613281 303.257812 111.367188 C 303.015625 111.121094 302.730469 110.933594 302.410156 110.796875 C 302.089844 110.664062 301.753906 110.597656 301.40625 110.597656 C 301.058594 110.597656 300.726562 110.664062 300.40625 110.796875 C 300.085938 110.933594 299.800781 111.121094 299.554688 111.367188 C 299.308594 111.613281 299.121094 111.898438 298.988281 112.21875 C 298.855469 112.539062 298.789062 112.875 298.789062 113.222656 L 298.789062 118.6875 L 293.945312 118.6875 L 293.945312 99.5 C 293.945312 99.460938 293.945312 99.421875 293.945312 99.378906 L 293.945312 94.191406 Z M 281.367188 106.710938 L 288.707031 103.488281 L 288.707031 118.6875 L 281.367188 118.6875 Z M 281.367188 106.710938 " fill-opacity="1" fill-rule="nonzero"/><path fill="#000000" d="M 305.285156 96.316406 C 305.285156 96.828125 305.183594 97.324219 304.988281 97.800781 C 304.792969 98.277344 304.511719 98.695312 304.148438 99.058594 C 303.785156 99.421875 303.367188 99.703125 302.890625 99.902344 C 302.417969 100.097656 301.921875 100.195312 301.40625 100.195312 C 300.894531 100.195312 300.398438 100.097656 299.925781 99.902344 C 299.449219 99.703125 299.03125 99.421875 298.667969 99.058594 C 298.304688 98.695312 298.023438 98.277344 297.828125 97.800781 C 297.628906 97.324219 297.53125 96.828125 297.53125 96.316406 C 297.53125 95.800781 297.628906 95.304688 297.828125 94.828125 C 298.023438 94.351562 298.304688 93.933594 298.667969 93.570312 C 299.03125 93.207031 299.449219 92.925781 299.925781 92.726562 C 300.398438 92.53125 300.894531 92.433594 301.40625 92.433594 C 301.921875 92.433594 302.417969 92.53125 302.890625 92.726562 C 303.367188 92.925781 303.785156 93.207031 304.148438 93.570312 C 304.511719 93.933594 304.792969 94.351562 304.988281 94.828125 C 305.183594 95.304688 305.285156 95.800781 305.285156 96.316406 Z M 305.285156 96.316406 " fill-opacity="1" fill-rule="nonzero"/></svg>